<svg xmlns="http://www.w3.org/2000/svg" width="35" height="35" viewBox="0 0 24 24">
    <g fill="none" fill-rule="evenodd">
        <g fill="#757575">
            <path d="M21.824 8.752l-3.379-3.081c-.787-.718-1.827-1.113-2.928-1.113h-.289c-.03-.023-.063-.044-.1-.061l-.884-.434c-.286-.14-.64-.038-.791.229-.049.085-.07.176-.068.266h-2.77c.002-.09-.02-.181-.068-.266-.15-.267-.505-.37-.791-.229l-.885.434c-.036.017-.069.038-.099.061h-.29c-1.1 0-2.14.395-2.927 1.113L2.176 8.752c-.225.206-.236.54-.023.758l2.21 2.26c.205.21.55.237.79.063l1.373-.988.139 8.617c.004.299.265.538.586.538h9.499c.32 0 .58-.24.585-.538l.14-8.617 1.371.988c.242.174.586.146.792-.064l2.21-2.26c.212-.216.201-.551-.024-.757z"/>
        </g>
    </g>
</svg>